<svg width="35" height="35" viewBox="0 0 35 35" fill="none" xmlns="http://www.w3.org/2000/svg">
<path d="M16.1236 0H18.8568C18.9117 0.0309089 18.9707 0.0539668 19.032 0.068502C21.6673 0.303464 24.1149 1.10631 26.4044 2.43662C32.3801 5.91447 35.8184 12.9969 34.8325 19.8409C34.2341 23.9949 32.4321 27.5378 29.3327 30.3622C25.3021 34.0352 20.5321 35.5231 15.1329 34.8381C11.3112 34.3531 8.01252 32.7036 5.26021 30.0025C2.47594 27.2684 0.787125 23.9659 0.193757 20.0951C0.134877 19.7087 0.0650422 19.3244 0 18.9388V16.0685C0.02902 16.0129 0.051974 15.9544 0.0684655 15.8938C0.15884 15.2979 0.224567 14.6978 0.336166 14.1059C1.69315 6.93309 7.6565 1.24126 14.9002 0.200025C15.3075 0.135633 15.7149 0.0650769 16.1236 0ZM17.2506 23.0516C17.3464 23.1201 17.4231 23.1653 17.4957 23.2194C18.8061 24.1844 20.1161 25.1503 21.4256 26.1171C22.3519 26.8021 22.9921 26.548 23.2331 25.4149C23.8867 22.3438 24.5396 19.274 25.1919 16.2055C25.487 14.8149 25.7889 13.4257 26.071 12.0324C26.1648 11.572 26.2312 11.0829 25.8163 10.7267C25.4014 10.3705 24.9824 10.5733 24.5634 10.7356C20.3979 12.3441 16.232 13.952 12.0657 15.5595C10.645 16.1076 9.22367 16.6556 7.80918 17.2166C7.48465 17.3461 7.1033 17.5221 7.13274 17.9379C7.16081 18.3387 7.55585 18.4325 7.88175 18.5353C9.19355 18.9463 10.5081 19.3491 11.8165 19.7683C12.0499 19.8437 12.2184 19.806 12.4155 19.6806C14.7032 18.2316 16.9927 16.7878 19.284 15.3493C20.2179 14.761 21.1517 14.1733 22.0856 13.586C22.3047 13.449 22.5286 13.3079 22.8819 13.5175C22.6409 13.747 22.4375 13.9498 22.2246 14.1422C19.7502 16.38 17.2764 18.6177 14.8029 20.8554C14.6785 20.963 14.5943 21.1096 14.564 21.2712C14.4791 22.2125 14.4209 23.1564 14.3586 24.099C14.3271 24.5614 14.3018 25.0245 14.2737 25.4869L14.362 25.5752C14.6044 25.4286 14.8789 25.317 15.083 25.1293C15.8114 24.4573 16.5153 23.7606 17.2506 23.0516Z" fill="#FFE57F"/>
</svg>
