<svg width="11" height="7" viewBox="0 0 11 7" fill="none" xmlns="http://www.w3.org/2000/svg">
<path d="M10.48 0.630028H0.669896C0.630631 0.627551 0.591674 0.637323 0.558201 0.657997C0.524729 0.678671 0.498493 0.709227 0.483128 0.745445C0.467763 0.781663 0.46399 0.821759 0.472386 0.860195C0.480781 0.898632 0.500936 0.933513 0.530003 0.960026L5.42991 6.30003C5.46897 6.33732 5.52092 6.35812 5.57492 6.35812C5.62893 6.35812 5.68088 6.33732 5.71994 6.30003L10.63 1.00003C10.6759 0.978041 10.7117 0.939361 10.7301 0.891876C10.7485 0.844392 10.7481 0.79168 10.729 0.744488C10.7098 0.697295 10.6734 0.659178 10.6272 0.637909C10.5809 0.61664 10.5282 0.613821 10.48 0.630028Z" fill="#7FFFFF"/>
</svg>
