<svg width="14" height="14" viewBox="0 0 14 14" fill="none" xmlns="http://www.w3.org/2000/svg">
<path d="M12.66 7.04998V11.12C12.66 11.5337 12.4957 11.9305 12.2031 12.2231C11.9106 12.5156 11.5137 12.68 11.1 12.68H2.95996C2.54622 12.68 2.14949 12.5156 1.85693 12.2231C1.56438 11.9305 1.40002 11.5337 1.40002 11.12V2.99998C1.40002 2.79559 1.4404 2.59321 1.51892 2.4045C1.59744 2.2158 1.71255 2.04448 1.85754 1.90042C2.00254 1.75635 2.17456 1.64239 2.36377 1.56509C2.55298 1.48778 2.75557 1.44866 2.95996 1.44998H7.03003" stroke="#7FFFFF" stroke-width="1.5" stroke-miterlimit="10"/>
<path d="M5.22998 8.85L12.26 1.81" stroke="#7FFFFF" stroke-width="1.5" stroke-miterlimit="10"/>
<path d="M8.75 1.42004H12.66V5.33005" stroke="#7FFFFF" stroke-width="1.5" stroke-miterlimit="10"/>
</svg>
