<svg width="21" height="21" viewBox="0 0 21 21" fill="none" xmlns="http://www.w3.org/2000/svg">
<path d="M10.09 4.96111e-06C8.09396 5.94141e-06 6.14275 0.592 4.48324 1.70115C2.82374 2.81029 1.53051 4.38673 0.767118 6.23102C0.00372463 8.07531 -0.195528 10.1046 0.194608 12.0621C0.584744 14.0196 1.54672 15.8175 2.95883 17.2282C4.37094 18.639 6.16973 19.5991 8.12765 19.9873C10.0856 20.3755 12.1147 20.1743 13.9582 19.4091C15.8018 18.6439 17.3769 17.349 18.4844 15.6884C19.5919 14.0278 20.182 12.076 20.18 10.08C20.18 8.75543 19.919 7.44383 19.4118 6.22022C18.9046 4.99661 18.1612 3.88497 17.2241 2.94883C16.287 2.01268 15.1746 1.27039 13.9505 0.764409C12.7264 0.25843 11.4146 -0.00130909 10.09 4.96111e-06ZM12.27 16.54C11.5076 16.8505 10.6932 17.0134 9.87002 17.02C9.59922 17.0391 9.32757 16.9964 9.07571 16.8951C8.82385 16.7937 8.59838 16.6364 8.41629 16.435C8.2342 16.2337 8.10027 15.9935 8.02469 15.7328C7.9491 15.472 7.93383 15.1975 7.98001 14.93C8.11001 13.93 8.43 12.93 8.66 11.93C8.79 11.35 8.89999 10.76 9.01999 10.17L8.83999 9.98996L9.01999 9.86002C9.03789 9.76419 9.03217 9.66543 9.00332 9.5723C8.97448 9.47917 8.9234 9.39447 8.85446 9.32554C8.78552 9.2566 8.70082 9.20545 8.60769 9.17661C8.51457 9.14777 8.41581 9.1421 8.31997 9.16001C7.89997 9.16001 7.49002 9.22999 7.05002 9.26999C7.03074 9.06519 7.08724 8.86044 7.20889 8.69455C7.33054 8.52867 7.50886 8.41315 7.70999 8.36997C8.49285 8.06117 9.32853 7.90832 10.17 7.91999C10.4101 7.91394 10.6488 7.95796 10.8709 8.04923C11.0931 8.1405 11.2938 8.27703 11.4603 8.45011C11.6268 8.62319 11.7555 8.82902 11.838 9.05454C11.9206 9.28006 11.9553 9.52031 11.94 9.75998C11.8271 10.6713 11.65 11.5736 11.41 12.46C11.26 13.11 11.06 13.76 10.93 14.41C10.69 15.62 11.1 16.02 12.32 15.79L12.86 15.64C12.882 15.7372 12.8844 15.8379 12.867 15.9361C12.8497 16.0342 12.8129 16.1279 12.7589 16.2117C12.7049 16.2955 12.6347 16.3677 12.5525 16.4241C12.4703 16.4805 12.3776 16.5199 12.28 16.54H12.27ZM11.38 6.31998C11.1655 6.33367 10.9506 6.30319 10.7484 6.23044C10.5463 6.15769 10.3612 6.04424 10.2046 5.89707C10.0481 5.74989 9.92336 5.57213 9.83829 5.37482C9.75321 5.17752 9.70955 4.96487 9.70999 4.75C9.71338 4.52709 9.76248 4.30723 9.85422 4.10404C9.94595 3.90085 10.0784 3.71863 10.2434 3.56867C10.4083 3.41871 10.6023 3.3042 10.8133 3.23218C11.0242 3.16017 11.2478 3.13219 11.47 3.15C11.9017 3.1498 12.3165 3.31781 12.6264 3.61838C12.9363 3.91896 13.117 4.32845 13.13 4.75998C13.1225 4.97812 13.0711 5.19249 12.9787 5.39023C12.8863 5.58798 12.7549 5.76501 12.5924 5.91071C12.4299 6.05641 12.2396 6.16777 12.033 6.2381C11.8264 6.30843 11.6076 6.33628 11.39 6.31998H11.38Z" fill="#FEFEFE"/>
</svg>
